<svg width="120" height="142" viewBox="0 0 120 142" fill="none" xmlns="http://www.w3.org/2000/svg">
<path opacity="0.2" d="M53.9748 134.773C83.7842 134.773 107.95 110.553 107.95 80.6757C107.95 50.7987 83.7842 26.5786 53.9748 26.5786C24.1653 26.5786 0 50.7987 0 80.6757C0 110.553 24.1653 134.773 53.9748 134.773Z" fill="#367CFF"/>
<path d="M4.20543 126.048C1.89656 121.06 0.699337 115.629 0.697025 110.13C0.694712 104.632 1.88736 99.1993 4.19204 94.2097C6.49672 89.2201 9.85811 84.7936 14.0425 81.2379C18.2268 77.6822 23.1337 75.0827 28.4219 73.6201L31.6336 85.2571C28.0312 86.2523 24.6884 88.0221 21.8376 90.4434C18.9868 92.8648 16.6965 95.8794 15.126 99.2778C13.5556 102.676 12.7426 106.377 12.7437 110.122C12.7448 113.867 13.5599 117.567 15.1323 120.965L4.20543 126.048Z" fill="#367CFF"/>
<path d="M4.8356 142C4.16837 142.001 3.51403 141.816 2.94508 141.467C2.37612 141.118 1.91477 140.617 1.61214 140.021C0.76657 138.357 0.256349 136.542 0.110606 134.68C-0.0351361 132.818 0.186455 130.946 0.762728 129.169C1.92656 125.582 4.46444 122.606 7.81806 120.894C9.4786 120.047 11.2894 119.535 13.1472 119.389C15.0049 119.243 16.8731 119.465 18.6452 120.043C22.2241 121.209 25.1941 123.753 26.9018 127.114C27.1214 127.538 27.255 128.002 27.295 128.478C27.3349 128.955 27.2805 129.434 27.1347 129.889C26.9889 130.345 26.7547 130.766 26.4455 131.13C26.1364 131.494 25.7584 131.793 25.3334 132.01C24.9084 132.227 24.4448 132.357 23.9693 132.394C23.4938 132.43 23.0158 132.372 22.5628 132.223C22.1098 132.073 21.6909 131.835 21.33 131.523C20.9692 131.21 20.6737 130.829 20.4605 130.401C20.0469 129.583 19.4763 128.854 18.7813 128.257C18.0863 127.66 17.2805 127.205 16.4102 126.921C15.5399 126.636 14.6221 126.526 13.7094 126.597C12.7966 126.669 11.9069 126.92 11.091 127.336C10.2752 127.752 9.54931 128.326 8.95495 129.024C8.36059 129.722 7.90941 130.53 7.62726 131.403C7.34511 132.276 7.23751 133.196 7.31065 134.111C7.38378 135.026 7.6362 135.917 8.05345 136.733C8.33368 137.286 8.46802 137.9 8.44366 138.519C8.4193 139.138 8.23704 139.741 7.91429 140.269C7.59154 140.797 7.13908 141.234 6.6001 141.537C6.06112 141.84 5.45361 141.999 4.8356 142V142Z" fill="#292A2E"/>
<path d="M98.247 80.3132C93.1705 84.6587 87.028 87.5664 80.4546 88.7356L78.3337 76.8493C84.1782 75.7936 89.4783 72.744 93.3349 68.2179C97.1915 63.6917 99.3672 57.9678 99.4928 52.0171L111.537 52.2688C111.35 61.9663 107.441 71.2184 100.623 78.1011C99.8579 78.8755 99.0661 79.6128 98.247 80.3132Z" fill="#367CFF"/>
<path d="M114.999 51.9235C112.949 53.669 110.447 54.7947 107.783 55.1693C105.119 55.5439 102.404 55.152 99.9538 54.0392C97.5038 52.9265 95.4197 51.1387 93.9446 48.8843C92.4694 46.63 91.6639 44.0018 91.622 41.3062C91.6127 40.3491 91.9816 39.4273 92.6483 38.7421C93.3149 38.0568 94.225 37.6638 95.1798 37.6489C96.1345 37.634 97.0564 37.9984 97.744 38.6625C98.4316 39.3266 98.829 40.2365 98.8495 41.1933C98.8782 43.0436 99.639 44.8067 100.965 46.0947C102.29 47.3827 104.072 48.0901 105.918 48.0613C107.764 48.0326 109.524 47.27 110.809 45.9413C112.094 44.6126 112.8 42.8267 112.771 40.9764C112.756 40.0159 113.122 39.0887 113.79 38.3989C114.457 37.7091 115.37 37.3132 116.328 37.2983C117.287 37.2834 118.212 37.6506 118.9 38.3193C119.588 38.9879 119.983 39.9032 119.998 40.8638C120.032 42.7319 119.696 44.5882 119.01 46.3254C118.323 48.0625 117.3 49.6458 115.998 50.9838C115.678 51.3147 115.345 51.6279 114.999 51.9235Z" fill="#292A2E"/>
<path d="M89.2211 0.276425L85.9429 9.80514C85.922 9.86586 85.9157 9.93065 85.9244 9.99428C85.9331 10.0579 85.9566 10.1186 85.993 10.1715C86.0294 10.2243 86.0777 10.2678 86.134 10.2985C86.1903 10.3292 86.253 10.3462 86.3171 10.3481L88.5288 10.4143C88.5936 10.4162 88.6571 10.4336 88.714 10.4651C88.7708 10.4965 88.8194 10.541 88.8556 10.595C88.8919 10.649 88.9148 10.7108 88.9225 10.7754C88.9301 10.84 88.9223 10.9055 88.8997 10.9665L85.2513 20.8109C85.2172 20.903 85.2173 21.0043 85.2516 21.0964C85.2858 21.1884 85.3519 21.2651 85.4378 21.3124C85.5237 21.3597 85.6237 21.3745 85.7195 21.354C85.8154 21.3336 85.9008 21.2794 85.9601 21.2012L94.5503 9.85364C94.5883 9.80337 94.6143 9.74496 94.6261 9.68297C94.638 9.62098 94.6353 9.5571 94.6185 9.49629C94.6016 9.43548 94.571 9.37941 94.5289 9.33243C94.4869 9.28545 94.4346 9.24884 94.3761 9.22545L91.8032 8.19657C91.7529 8.17645 91.7071 8.14651 91.6684 8.10848C91.6297 8.07045 91.599 8.02509 91.578 7.97504C91.557 7.925 91.5461 7.87127 91.546 7.81697C91.5459 7.76268 91.5566 7.7089 91.5774 7.65878L94.4625 0.712391C94.4879 0.65117 94.4981 0.584683 94.4922 0.518639C94.4863 0.452594 94.4646 0.388965 94.4287 0.333217C94.3929 0.277468 94.3442 0.231265 94.2866 0.198574C94.229 0.165884 94.1644 0.147683 94.0983 0.145535L89.6207 0.000213152C89.5334 -0.0026109 89.4475 0.0226894 89.3756 0.0724012C89.3036 0.122113 89.2495 0.193619 89.2211 0.276425Z" fill="#367CFF"/>
<path d="M5.48807 44.0079L9.3079 51.4536C9.33215 51.5011 9.34495 51.5536 9.34526 51.6069C9.34557 51.6602 9.33339 51.7129 9.3097 51.7606C9.286 51.8084 9.25146 51.8499 9.20884 51.8818C9.16622 51.9138 9.11671 51.9352 9.06431 51.9445L7.25379 52.261C7.2007 52.2703 7.15058 52.2922 7.10758 52.3248C7.06458 52.3574 7.02993 52.3998 7.00649 52.4484C6.98304 52.4971 6.97148 52.5506 6.97275 52.6046C6.97403 52.6587 6.9881 52.7116 7.0138 52.7591L11.1758 60.4203C11.214 60.4919 11.2253 60.5749 11.2078 60.6543C11.1903 60.7336 11.1451 60.8041 11.0803 60.8529C11.0155 60.9018 10.9355 60.9258 10.8546 60.9207C10.7736 60.9157 10.6972 60.8818 10.639 60.8252L2.23702 52.5139C2.1999 52.4771 2.17176 52.4321 2.15478 52.3826C2.1378 52.3331 2.13244 52.2803 2.13911 52.2284C2.14578 52.1764 2.16431 52.1267 2.19326 52.0831C2.22221 52.0395 2.26079 52.0032 2.30602 51.977L4.29993 50.826C4.33888 50.8034 4.37297 50.7734 4.40024 50.7375C4.42751 50.7016 4.4474 50.6607 4.45876 50.6171C4.47013 50.5734 4.47274 50.528 4.46645 50.4833C4.46016 50.4387 4.44509 50.3957 4.42212 50.357L1.23026 44.9879C1.20232 44.9405 1.18622 44.8871 1.18333 44.8322C1.18045 44.7773 1.19087 44.7225 1.2137 44.6725C1.23653 44.6225 1.2711 44.5788 1.31445 44.5451C1.35781 44.5114 1.40865 44.4887 1.46265 44.4789L5.12709 43.8289C5.19844 43.8163 5.27194 43.8269 5.33687 43.8591C5.40181 43.8913 5.45478 43.9434 5.48807 44.0079Z" fill="#292A2E"/>
<path d="M20.3325 74.254L28.3188 119.523C29.3511 125.375 32.4069 130.676 36.9499 134.495C41.4929 138.314 47.2327 140.407 53.162 140.407C58.9428 140.407 64.5482 138.418 69.0406 134.771C73.5329 131.125 76.6396 126.043 77.8409 120.376L87.6173 74.2534L20.3325 74.254Z" fill="#367CFF"/>
<path d="M53.9748 84.2228C72.5549 84.2228 87.6171 79.7595 87.6171 74.2538C87.6171 68.748 72.5549 64.2847 53.9748 64.2847C35.3947 64.2847 20.3325 68.748 20.3325 74.2538C20.3325 79.7595 35.3947 84.2228 53.9748 84.2228Z" fill="#292A2E"/>
<path d="M65.9452 99.834H42.3977C40.1671 99.834 38.3589 101.646 38.3589 103.882V115.299C38.3589 117.535 40.1671 119.347 42.3977 119.347H65.9452C68.1758 119.347 69.9841 117.535 69.9841 115.299V103.882C69.9841 101.646 68.1758 99.834 65.9452 99.834Z" fill="#292A2E"/>
<path d="M51.6202 109.955H50.2202C50.2202 108.107 51.0558 105.559 55.0366 103.92C57.3685 102.96 56.5965 99.4131 56.5881 99.3774L57.9527 99.0635C57.9971 99.2565 59.0004 103.805 55.5686 105.217C52.9485 106.296 51.6202 107.89 51.6202 109.955Z" fill="#367CFF"/>
<path d="M64.1801 120.168C62.8187 117.61 62.2506 117.66 59.8549 117.874C59.0749 117.943 58.1045 118.03 56.9198 118.03C51.617 118.03 51.0653 114.161 51.0601 114.122L52.4486 113.946L51.7542 114.034L52.4478 113.939C52.4638 114.049 52.8878 116.627 56.9194 116.627C58.0419 116.627 58.9393 116.547 59.7305 116.476C62.4257 116.236 63.6903 116.266 65.4148 119.508L64.1801 120.168Z" fill="#367CFF"/>
<path d="M47.9979 110.674C47.9501 110.674 47.903 110.663 47.8605 110.641L46.3474 109.859C46.2767 109.822 46.2234 109.759 46.1992 109.683C46.1751 109.607 46.182 109.525 46.2185 109.454C46.255 109.383 46.3181 109.329 46.394 109.305C46.4698 109.281 46.5521 109.288 46.6228 109.325L48.1359 110.106C48.1958 110.137 48.2436 110.187 48.2716 110.249C48.2996 110.31 48.3062 110.379 48.2902 110.445C48.2743 110.51 48.2368 110.569 48.1838 110.61C48.1308 110.652 48.0653 110.675 47.9979 110.674Z" fill="white"/>
<path d="M46.1697 113.65C46.0997 113.65 46.032 113.625 45.9783 113.58C45.9246 113.535 45.8882 113.473 45.8756 113.404C45.8629 113.335 45.8747 113.263 45.9089 113.202C45.9431 113.141 45.9976 113.094 46.0629 113.069L47.6542 112.461C47.7275 112.437 47.8073 112.442 47.8769 112.475C47.9466 112.509 48.0008 112.568 48.0283 112.64C48.0558 112.712 48.0545 112.792 48.0246 112.863C47.9947 112.935 47.9385 112.992 47.8678 113.023L46.2765 113.63C46.2424 113.643 46.2062 113.65 46.1697 113.65Z" fill="white"/>
<path d="M55.74 112.414C55.6648 112.414 55.5924 112.386 55.5371 112.335C55.4818 112.284 55.4477 112.214 55.4415 112.139C55.4352 112.063 55.4573 111.989 55.5034 111.929C55.5495 111.87 55.6163 111.83 55.6904 111.817L57.3703 111.533C57.4486 111.52 57.5287 111.539 57.5932 111.585C57.6577 111.631 57.7014 111.701 57.7146 111.779C57.7278 111.858 57.7095 111.938 57.6638 112.003C57.618 112.068 57.5484 112.112 57.4703 112.126L55.7904 112.41C55.7737 112.413 55.7569 112.414 55.74 112.414Z" fill="white"/>
<path d="M54.5115 110.377C54.4579 110.377 54.4052 110.363 54.359 110.335C54.3129 110.308 54.2748 110.269 54.2489 110.222C54.2231 110.175 54.2102 110.122 54.2118 110.068C54.2134 110.014 54.2293 109.962 54.2579 109.916L55.1669 108.473C55.1875 108.439 55.2147 108.409 55.2469 108.385C55.2791 108.362 55.3157 108.345 55.3546 108.336C55.3934 108.327 55.4337 108.325 55.473 108.332C55.5124 108.338 55.55 108.353 55.5838 108.374C55.6175 108.395 55.6467 108.423 55.6696 108.456C55.6924 108.489 55.7086 108.526 55.717 108.565C55.7254 108.604 55.726 108.644 55.7186 108.684C55.7113 108.723 55.6962 108.76 55.6742 108.794L54.7653 110.237C54.7382 110.28 54.7008 110.315 54.6564 110.34C54.612 110.364 54.5622 110.377 54.5115 110.377Z" fill="white"/>
<path d="M71.6353 108.905C68.723 108.905 66.2933 108.108 64.3942 106.525C60.8854 103.601 60.5092 99.0869 60.4944 98.8963L61.8903 98.791L61.1924 98.8438L61.8901 98.79C61.8935 98.8301 62.2469 102.919 65.2996 105.455C67.2995 107.116 70.026 107.771 73.4084 107.402L73.56 108.797C72.9209 108.868 72.2783 108.904 71.6353 108.905Z" fill="#367CFF"/>
<path d="M35.1373 117.625L34.8787 116.246C40.2458 115.235 40.2418 112.997 40.2372 110.406C40.2342 108.661 40.2306 106.683 42.2817 105.527C46.0966 103.376 45.791 98.5002 45.7876 98.4509L47.1835 98.3457C47.2013 98.5816 47.5697 104.155 42.9681 106.749C41.6968 107.466 41.634 108.605 41.6372 110.403C41.642 113.074 41.6478 116.398 35.1373 117.625Z" fill="#367CFF"/>
<path d="M76.5081 77.3639C76.4813 77.3639 76.4544 77.3613 76.4281 77.3559C74.9128 77.0504 72.0539 75.7523 72.0795 73.0231C72.0774 72.4881 72.2043 71.9606 72.4494 71.4853C72.6944 71.0101 73.0504 70.6012 73.4871 70.2935C73.0402 69.4635 72.908 68.4995 73.1149 67.5794C73.6864 64.5946 76.6847 64.0717 78.191 64.2132C78.2963 64.2234 78.3933 64.275 78.4607 64.3567C78.5282 64.4384 78.5606 64.5435 78.5508 64.6491C78.5411 64.7547 78.49 64.8521 78.4088 64.92C78.3276 64.9879 78.2228 65.0209 78.1174 65.0116C77.9697 64.9979 74.4776 64.7181 73.9004 67.7306C73.7301 68.4576 73.8269 69.2219 74.1732 69.8831C75.658 69.1652 77.6917 69.1615 78.6252 69.8769C78.8123 70.0052 78.9579 70.1855 79.0442 70.3956C79.1305 70.6057 79.1537 70.8364 79.111 71.0596C78.9242 72.0357 77.7811 72.5228 76.3335 72.2442C75.4222 72.0775 74.5885 71.6217 73.9554 70.9439C73.6203 71.1779 73.3472 71.4903 73.1597 71.8539C72.9723 72.2176 72.8761 72.6216 72.8795 73.0309C72.8537 75.777 76.5491 76.5625 76.5863 76.5702C76.6836 76.5897 76.7702 76.6448 76.8293 76.7248C76.8883 76.8048 76.9156 76.9039 76.9057 77.0029C76.8959 77.1019 76.8497 77.1937 76.7761 77.2605C76.7025 77.3272 76.6068 77.3642 76.5075 77.3641L76.5081 77.3639ZM74.6766 70.5344C75.1811 71.006 75.8081 71.3256 76.4855 71.4564C77.4397 71.6394 78.2316 71.4041 78.3266 70.908C78.341 70.831 78.3306 70.7514 78.2972 70.6805C78.2637 70.6097 78.2088 70.5513 78.1402 70.5135C77.5365 70.0505 75.9625 69.9752 74.6766 70.5344Z" fill="white"/>
<path d="M42.3201 74.3528C42.2361 74.3528 42.1543 74.3263 42.0862 74.2771C42.0181 74.2279 41.9672 74.1585 41.9406 74.0787C41.9141 73.9989 41.9133 73.9127 41.9383 73.8324C41.9633 73.7521 42.0129 73.6817 42.0801 73.6312C42.1663 73.566 44.18 72.01 43.035 70.122C42.7895 69.6815 42.4042 69.3358 41.9403 69.1398C41.4403 70.2824 40.3098 71.2846 39.4218 71.3594C39.2347 71.3843 39.0444 71.354 38.8742 71.2721C38.704 71.1902 38.5614 71.0603 38.4639 70.8983C38.3543 70.7075 38.2988 70.4904 38.3032 70.2702C38.3077 70.0501 38.3719 69.8354 38.489 69.6492C38.9348 68.8332 40.0436 68.2232 41.1249 68.1988C41.2149 68.1972 41.3049 68.1988 41.3929 68.2046C41.4431 67.9321 41.4293 67.6517 41.3526 67.3856C41.2759 67.1194 41.1383 66.8748 40.9509 66.6712C39.6354 65.1865 37.2599 66.578 37.2363 66.5922C37.1912 66.6191 37.1412 66.6369 37.0892 66.6445C37.0372 66.6521 36.9843 66.6493 36.9333 66.6364C36.8824 66.6234 36.8345 66.6006 36.7924 66.5691C36.7503 66.5376 36.7148 66.4981 36.6879 66.4529C36.661 66.4077 36.6433 66.3576 36.6358 66.3055C36.6282 66.2534 36.6309 66.2003 36.6439 66.1492C36.6568 66.0982 36.6796 66.0502 36.711 66.008C36.7424 65.9658 36.7818 65.9302 36.8269 65.9033C36.9469 65.8313 39.7996 64.164 41.5489 66.1386C41.8202 66.4358 42.0182 66.7925 42.1273 67.1802C42.2363 67.5678 42.2533 67.9757 42.1769 68.3711C42.8274 68.6264 43.3714 69.0969 43.7186 69.7045C44.9386 71.7145 43.4938 73.5707 42.5601 74.2714C42.4911 74.324 42.4068 74.3526 42.3201 74.3528ZM41.1201 69.0023C40.2496 69.0304 39.457 69.5471 39.19 70.0356C39.1432 70.0994 39.1144 70.1747 39.1069 70.2536C39.0993 70.3324 39.1132 70.4118 39.147 70.4834C39.167 70.5173 39.2022 70.5724 39.3554 70.5612C39.8568 70.5195 40.6802 69.8516 41.1197 69.0023H41.1201Z" fill="white"/>
<path d="M86.1186 40.9749C88.1663 55.487 74.5791 64.5363 56.6029 67.0839C38.6268 69.6316 23.0694 64.7137 21.0219 50.2005C18.9744 35.6874 31.2121 17.0749 49.1881 14.5273C67.1641 11.9796 84.0711 26.4617 86.1186 40.9749Z" fill="#367CFF"/>
<path d="M68.8739 25.4555L50.3599 28.0792C44.5566 28.9017 40.5172 34.2835 41.3378 40.1C42.1584 45.9164 47.5281 49.9649 53.3314 49.1425L71.8454 46.5187C77.6487 45.6963 81.688 40.3145 80.8674 34.498C80.0469 28.6816 74.6772 24.6331 68.8739 25.4555Z" fill="white"/>
<path d="M47.5958 3.29649L46.1602 3.57227L48.9327 18.0709L50.3683 17.7951L47.5958 3.29649Z" fill="#367CFF"/>
<path d="M47.0831 7.18417C48.5585 7.18417 49.7546 5.98539 49.7546 4.50663C49.7546 3.02787 48.5585 1.8291 47.0831 1.8291C45.6077 1.8291 44.4116 3.02787 44.4116 4.50663C44.4116 5.98539 45.6077 7.18417 47.0831 7.18417Z" fill="#292A2E"/>
<path d="M57.1106 42.5292C56.8508 42.5293 56.598 42.4444 56.3907 42.2875L48.5288 36.361C48.4006 36.2669 48.2924 36.1482 48.2103 36.0119C48.1283 35.8755 48.074 35.7242 48.0508 35.5667C48.0275 35.4092 48.0357 35.2486 48.0749 35.0943C48.114 34.9399 48.1833 34.7949 48.2789 34.6677C48.3744 34.5404 48.4941 34.4335 48.6312 34.353C48.7683 34.2725 48.92 34.2201 49.0774 34.1988C49.2348 34.1775 49.3949 34.1878 49.5484 34.229C49.7019 34.2702 49.8456 34.3416 49.9714 34.4389L57.8328 40.3658C58.0344 40.5174 58.1833 40.7287 58.2584 40.9699C58.3334 41.211 58.3308 41.4698 58.2509 41.7093C58.1709 41.9489 58.0178 42.1572 57.8131 42.3046C57.6085 42.452 57.3627 42.5311 57.1106 42.5306V42.5292Z" fill="#292A2E"/>
<path d="M50.2227 43.5051C49.9998 43.5049 49.7813 43.4425 49.5918 43.3249C49.4023 43.2072 49.2492 43.039 49.1498 42.8391C49.0503 42.6391 49.0084 42.4154 49.0287 42.1929C49.049 41.9704 49.1307 41.758 49.2647 41.5794L55.1787 33.7C55.371 33.448 55.6549 33.2823 55.9686 33.2392C56.2822 33.1961 56.6001 33.2789 56.8531 33.4696C57.1061 33.6604 57.2736 33.9436 57.3192 34.2576C57.3647 34.5716 57.2847 34.8909 57.0964 35.146L51.1826 43.0254C51.0708 43.1746 50.9258 43.2957 50.7592 43.3789C50.5926 43.4622 50.4089 43.5054 50.2227 43.5051Z" fill="#292A2E"/>
<path d="M74.1834 40.1092C73.9236 40.1092 73.6708 40.0244 73.4634 39.8674L65.602 33.9403C65.4751 33.8457 65.368 33.727 65.2871 33.5908C65.2061 33.4547 65.1528 33.3038 65.1302 33.1469C65.1076 32.99 65.1162 32.8302 65.1555 32.6767C65.1947 32.5231 65.2638 32.3789 65.3589 32.2522C65.454 32.1255 65.5731 32.0189 65.7094 31.9386C65.8457 31.8582 65.9965 31.8056 66.1531 31.7838C66.3098 31.7621 66.4692 31.7716 66.6221 31.8118C66.7751 31.852 66.9187 31.9221 67.0445 32.0181L74.906 37.9452C75.1076 38.0967 75.2565 38.3081 75.3315 38.5492C75.4066 38.7904 75.4039 39.0491 75.324 39.2887C75.2441 39.5282 75.0909 39.7365 74.8863 39.8839C74.6816 40.0314 74.4358 40.1104 74.1838 40.11L74.1834 40.1092Z" fill="#292A2E"/>
<path d="M67.2959 41.0856C67.0729 41.0855 66.8545 41.0231 66.6649 40.9055C66.4754 40.7878 66.3223 40.6196 66.2228 40.4197C66.1233 40.2197 66.0814 39.9959 66.1017 39.7734C66.122 39.5509 66.2037 39.3385 66.3377 39.1599L72.2515 31.2805C72.4428 31.0256 72.7273 30.8573 73.0424 30.8126C73.3575 30.768 73.6774 30.8506 73.9318 31.0424C74.1861 31.2341 74.354 31.5193 74.3986 31.8351C74.4431 32.1509 74.3607 32.4716 74.1694 32.7265L68.2556 40.6059C68.1438 40.7551 67.9989 40.8762 67.8323 40.9594C67.6657 41.0427 67.482 41.0859 67.2959 41.0856Z" fill="#292A2E"/>
<path d="M62.7648 52.4317C63.1259 51.9525 63.6155 51.586 64.1765 51.375C64.7375 51.1639 65.3467 51.117 65.9333 51.2397C66.5199 51.3623 67.0596 51.6496 67.4895 52.0679C67.9195 52.4862 68.2219 53.0183 68.3617 53.6023C68.3871 53.7056 68.3919 53.813 68.3758 53.9181C68.3596 54.0233 68.3229 54.1242 68.2677 54.2151C68.2125 54.306 68.1399 54.3851 68.054 54.4477C67.9682 54.5104 67.8709 54.5554 67.7677 54.5802C67.6644 54.605 67.5573 54.6091 67.4525 54.5923C67.3476 54.5754 67.2472 54.538 67.1568 54.482C67.0665 54.4261 66.9881 54.3528 66.9261 54.2664C66.8642 54.18 66.8199 54.0822 66.7958 53.9785C66.7483 53.7801 66.6623 53.5929 66.5426 53.4277C66.423 53.2626 66.272 53.1226 66.0984 53.0159C65.9248 52.9092 65.7319 52.8378 65.5308 52.8059C65.3297 52.7739 65.1242 52.7819 64.9262 52.8295C64.7281 52.8771 64.5414 52.9633 64.3766 53.0832C64.2118 53.2032 64.0722 53.3544 63.9657 53.5284C63.8593 53.7024 63.7881 53.8958 63.7561 54.0974C63.7242 54.2989 63.7322 54.5049 63.7797 54.7033C63.828 54.9109 63.7923 55.1292 63.6806 55.3105C63.5688 55.4918 63.39 55.6215 63.1832 55.6712C62.9765 55.7209 62.7585 55.6865 62.5768 55.5757C62.3952 55.4649 62.2647 55.2865 62.2138 55.0796C62.116 54.675 62.0992 54.2551 62.1645 53.844C62.2297 53.4329 62.3756 53.0389 62.5938 52.6847C62.6468 52.5973 62.7038 52.513 62.7648 52.4317Z" fill="#292A2E"/>
</svg>
