<svg width="118" height="111" viewBox="0 0 118 111" fill="none" xmlns="http://www.w3.org/2000/svg">
<path d="M55 110.25C85.3757 110.25 110 85.6257 110 55.25C110 24.8743 85.3757 0.25 55 0.25C24.6243 0.25 0 24.8743 0 55.25C0 85.6257 24.6243 110.25 55 110.25Z" fill="#027DFF"/>
<path opacity="0.86" d="M55 110.25C85.3757 110.25 110 85.6257 110 55.25C110 24.8743 85.3757 0.25 55 0.25C24.6243 0.25 0 24.8743 0 55.25C0 85.6257 24.6243 110.25 55 110.25Z" fill="white"/>
<path opacity="0.1" d="M26.0455 56.0958L37.5104 72.4139L18.3412 75.6029L11.9209 66.9396L26.0455 56.0958Z" fill="#027DFF"/>
<path opacity="0.1" d="M99.8782 31.0021L92.1739 24.5874L83.6135 36.7014L86.2914 39.7997L99.8782 31.0021Z" fill="#027DFF"/>
<path opacity="0.1" d="M21.1235 36.7014L28.2082 31.4126L34.1835 41.122L27.2888 44.7437L21.1235 36.7014Z" fill="#027DFF"/>
<path opacity="0.1" d="M62.9351 95.3552L71.088 88.7208L76.1232 95.3552L67.0436 101.561L62.9351 95.3552Z" fill="#027DFF"/>
<path opacity="0.1" d="M30.2942 47.4174L37.6928 42.0117L43.5941 49.7714L40.3841 53.0501L45.1653 59.218L49.5864 56.0959L54.7377 62.6119L45.1653 69.6741L30.2942 47.4174Z" fill="#027DFF"/>
<path d="M109.919 58.254L82.3655 76.909L95.0574 92.9371C94.6801 93.34 94.296 93.7362 93.9053 94.1257L81.0256 77.8606L58.6467 94.5432L68.5585 108.566C67.9879 108.712 67.4136 108.847 66.8357 108.972L56.8455 94.8367L42.8283 75.2902L18.2885 80.2342L20.2519 97.8829C19.6321 97.378 19.0244 96.8596 18.4289 96.3279L16.604 79.9225L0.30615 61.0687C0.207706 60.1536 0.13357 59.2317 0.0837402 58.3032L17.6978 78.681L41.7782 73.8281L7.98055 26.701C8.28681 26.1961 8.60159 25.6965 8.92487 25.2025L43.5423 73.4726L43.7319 73.4343L68.9845 55.6653L51.097 32.4436L53.6802 0.267139C54.1195 0.256201 54.5595 0.250732 55.0001 0.250732C55.1094 0.250732 55.2188 0.250731 55.3282 0.252554L52.7833 31.9441L70.3281 54.7191L104.289 30.8229C104.537 31.3188 104.777 31.8195 105.008 32.3251L44.5432 74.8691L57.6945 93.2069L81.3227 75.5932L81.3446 75.6205L109.99 56.2253C109.979 56.9049 109.955 57.5795 109.919 58.254Z" fill="white"/>
<g opacity="0.7">
<path d="M99.8517 1.70813H79.2019V26.186H99.8517V1.70813Z" fill="#F4F4F4"/>
<path d="M99.8518 26.186H100.522V1.70812H99.8518V26.186Z" fill="#F4F4F4"/>
<path opacity="0.05" d="M99.8518 26.186H100.522V1.70812H99.8518V26.186Z" fill="#292A2E"/>
<path opacity="0.05" d="M96.0902 6.60437H82.9636V21.2899H96.0902V6.60437Z" fill="#292A2E"/>
<path opacity="0.03" d="M96.0901 6.60437H95.406V21.2899H96.0901V6.60437Z" fill="#292A2E"/>
<path d="M116.74 32.7959H99.8518V49.8392H116.74V32.7959Z" fill="#F4F4F4"/>
<path opacity="0.05" d="M113.664 35.9005H102.928V46.7345H113.664V35.9005Z" fill="#292A2E"/>
<path d="M116.74 49.8391H117.41V32.7959H116.74V49.8391Z" fill="#F4F4F4"/>
<path opacity="0.05" d="M116.74 49.8391H117.41V32.7959H116.74V49.8391Z" fill="#292A2E"/>
<path opacity="0.03" d="M113.664 35.9005H112.979V46.7345H113.664V35.9005Z" fill="#292A2E"/>
</g>
<g opacity="0.7">
<path d="M57.5707 0.75H8.95508V49.3656H57.5707V0.75Z" fill="#F4F4F4"/>
<path d="M8.95518 0.75H8.39795V49.3656H8.95518V0.75Z" fill="#F4F4F4"/>
<path opacity="0.05" d="M8.95518 0.75H8.39795V49.3656H8.95518V0.75Z" fill="#292A2E"/>
<path opacity="0.05" d="M20.7325 34.2501V21.5308H31.1515V28.9204H47.2907V42.0049H54.1502V49.3656H47.2907H45.9694H11.2937V34.2501H20.7325Z" fill="#292A2E"/>
<path opacity="0.34" d="M29.8144 22.9117H22.2271V24.2928H29.8144V22.9117Z" fill="#FFFFFA"/>
<path opacity="0.34" d="M29.8144 25.7736H22.2271V27.1546H29.8144V25.7736Z" fill="#FFFFFA"/>
<path opacity="0.34" d="M29.8144 28.6354H22.2271V30.0164H29.8144V28.6354Z" fill="#FFFFFA"/>
<path opacity="0.34" d="M14.0376 35.5907H12.6392V36.9717H14.0376V35.5907Z" fill="#FFFFFA"/>
<path opacity="0.34" d="M14.0376 38.4525H12.6392V39.8335H14.0376V38.4525Z" fill="#FFFFFA"/>
<path opacity="0.34" d="M14.0376 41.3143H12.6392V42.6953H14.0376V41.3143Z" fill="#FFFFFA"/>
<path opacity="0.34" d="M16.6247 35.5907H15.2263V36.9717H16.6247V35.5907Z" fill="#FFFFFA"/>
<path opacity="0.34" d="M16.6247 38.4525H15.2263V39.8335H16.6247V38.4525Z" fill="#FFFFFA"/>
<path opacity="0.34" d="M16.6247 41.3143H15.2263V42.6953H16.6247V41.3143Z" fill="#FFFFFA"/>
<path opacity="0.34" d="M19.1418 35.5907H17.7434V36.9717H19.1418V35.5907Z" fill="#FFFFFA"/>
<path opacity="0.34" d="M19.1418 38.4525H17.7434V39.8335H19.1418V38.4525Z" fill="#FFFFFA"/>
<path opacity="0.34" d="M19.1418 41.3143H17.7434V42.6953H19.1418V41.3143Z" fill="#FFFFFA"/>
<path d="M8.95508 24.7851H18.7373V0.75H19.5464V24.7851H45.9693V0.75H46.7784V24.7851H57.5707V25.5941H46.7784V49.3656H45.9693V25.5941H19.5464V49.3656H18.7373V25.5941H8.95508V24.7851Z" fill="white"/>
<path d="M59.5075 49.3069H7.01855V50.9236H59.5075V49.3069Z" fill="#F4F4F4"/>
<path opacity="0.1" d="M59.5075 49.3069H7.01855V50.9236H59.5075V49.3069Z" fill="#292A2E"/>
<path opacity="0.1" d="M7.01851 49.3069H6.26074V50.9236H7.01851V49.3069Z" fill="#292A2E"/>
<path opacity="0.1" d="M7.01851 49.3069H6.26074V50.9236H7.01851V49.3069Z" fill="#292A2E"/>
</g>
<path d="M37.0141 6.78674H93.9174C94.7371 6.78674 95.5232 7.11236 96.1028 7.69196C96.6824 8.27157 97.008 9.05767 97.008 9.87736V78.0312C97.008 78.8687 96.6753 79.6719 96.0831 80.2641C95.4909 80.8563 94.6877 81.189 93.8502 81.189H37.0814C36.2439 81.189 35.4407 80.8563 34.8485 80.2641C34.2563 79.6719 33.9236 78.8687 33.9236 78.0312V9.877C33.9237 9.0574 34.2493 8.2714 34.8289 7.69188C35.4085 7.11236 36.1945 6.78677 37.0141 6.78674Z" fill="white"/>
<path d="M93.8501 81.3089H37.0813C36.212 81.3089 35.3782 80.9636 34.7635 80.3489C34.1488 79.7342 33.8035 78.9004 33.8035 78.0311V9.757C33.8035 8.93739 34.1292 8.15138 34.7087 7.57185C35.2883 6.99232 36.0743 6.66675 36.894 6.66675H94.0373C94.857 6.66675 95.643 6.99235 96.2226 7.57193C96.8022 8.1515 97.1279 8.93758 97.1279 9.75724V78.0311C97.1279 78.9004 96.7826 79.7342 96.1679 80.3489C95.5531 80.9636 94.7194 81.3089 93.8501 81.3089ZM34.0435 9.87185V78.0311C34.0435 78.43 34.122 78.825 34.2747 79.1936C34.4274 79.5622 34.6511 79.8971 34.9332 80.1792C35.2153 80.4613 35.5502 80.685 35.9188 80.8377C36.2873 80.9903 36.6824 81.0689 37.0813 81.0689H93.8501C94.6558 81.0689 95.4284 80.7488 95.9981 80.1791C96.5678 79.6094 96.8879 78.8368 96.8879 78.0311V9.84185C96.8878 9.45636 96.8119 9.07466 96.6643 8.71854C96.5167 8.36241 96.3005 8.03884 96.0279 7.76629C95.7552 7.49374 95.4316 7.27756 95.0755 7.13009C94.7193 6.98261 94.3376 6.90673 93.9521 6.90678H37.0088C36.2224 6.90678 35.4682 7.21916 34.9121 7.77521C34.356 8.33127 34.0436 9.08544 34.0435 9.87185Z" fill="#292A2E"/>
<path d="M46.161 21.5818H39.2651C38.8808 21.5814 38.5124 21.4286 38.2406 21.1568C37.9688 20.8851 37.8159 20.5167 37.8154 20.1324V13.2364C37.8159 12.8521 37.9687 12.4836 38.2405 12.2118C38.5123 11.9401 38.8807 11.7872 39.2651 11.7867H46.161C46.5454 11.7872 46.9139 11.94 47.1856 12.2118C47.4574 12.4836 47.6103 12.852 47.6108 13.2364V20.1324C47.6103 20.5167 47.4573 20.8852 47.1856 21.1569C46.9138 21.4286 46.5453 21.5814 46.161 21.5818ZM39.2651 12.0265C38.9444 12.0269 38.6369 12.1545 38.4102 12.3812C38.1834 12.608 38.0558 12.9155 38.0555 13.2362V20.1324C38.0558 20.4531 38.1834 20.7606 38.4102 20.9873C38.6369 21.2141 38.9444 21.3417 39.2651 21.3421H46.161C46.4817 21.3417 46.7892 21.2142 47.016 20.9874C47.2428 20.7606 47.3704 20.4531 47.3707 20.1324V13.2364C47.3704 12.9157 47.2428 12.6082 47.016 12.3814C46.7892 12.1547 46.4817 12.0271 46.161 12.0268L39.2651 12.0265Z" fill="#292A2E"/>
<path d="M46.161 35.244H39.2651C38.8807 35.2435 38.5123 35.0906 38.2405 34.8189C37.9687 34.5471 37.8159 34.1786 37.8154 33.7943V26.8984C37.8158 26.514 37.9687 26.1455 38.2405 25.8737C38.5122 25.6019 38.8807 25.4491 39.2651 25.4486H46.161C46.5454 25.4491 46.9139 25.6019 47.1857 25.8737C47.4574 26.1455 47.6103 26.514 47.6108 26.8984V33.7943C47.6103 34.1787 47.4574 34.5471 47.1856 34.8189C46.9139 35.0907 46.5454 35.2435 46.161 35.244ZM39.2651 25.689C38.9444 25.6894 38.6369 25.817 38.4101 26.0438C38.1834 26.2705 38.0558 26.578 38.0555 26.8987V33.7947C38.0558 34.1154 38.1834 34.4228 38.4101 34.6496C38.6369 34.8764 38.9444 35.0039 39.2651 35.0043H46.161C46.4817 35.0039 46.7892 34.8764 47.016 34.6496C47.2428 34.4228 47.3704 34.1154 47.3707 33.7947V26.8984C47.3704 26.5777 47.2428 26.2702 47.016 26.0434C46.7892 25.8166 46.4817 25.689 46.161 25.6886L39.2651 25.689Z" fill="#292A2E"/>
<path d="M46.161 48.9062H39.2651C38.8807 48.9057 38.5123 48.7529 38.2405 48.4811C37.9687 48.2093 37.8159 47.8409 37.8154 47.4565V40.5606C37.8159 40.1763 37.9687 39.8078 38.2405 39.536C38.5123 39.2643 38.8807 39.1114 39.2651 39.111H46.161C46.5454 39.1114 46.9139 39.2642 47.1856 39.536C47.4574 39.8078 47.6103 40.1763 47.6108 40.5606V47.4565C47.6103 47.8409 47.4574 48.2094 47.1856 48.4811C46.9139 48.7529 46.5454 48.9058 46.161 48.9062ZM39.2651 39.351C38.9444 39.3513 38.6369 39.4789 38.4101 39.7057C38.1834 39.9324 38.0558 40.2399 38.0555 40.5606V47.4565C38.0558 47.7772 38.1834 48.0847 38.4101 48.3115C38.6369 48.5383 38.9444 48.6658 39.2651 48.6662H46.161C46.4817 48.6658 46.7892 48.5383 47.016 48.3115C47.2428 48.0847 47.3704 47.7772 47.3707 47.4565V40.5606C47.3704 40.2399 47.2428 39.9324 47.016 39.7057C46.7892 39.4789 46.4817 39.3513 46.161 39.351H39.2651Z" fill="#292A2E"/>
<path d="M46.161 62.3807H39.2651C38.8807 62.3802 38.5123 62.2274 38.2405 61.9556C37.9687 61.6838 37.8159 61.3154 37.8154 60.931V54.0351C37.8158 53.6507 37.9687 53.2822 38.2405 53.0105C38.5122 52.7387 38.8807 52.5858 39.2651 52.5853H46.161C46.5454 52.5858 46.9139 52.7387 47.1857 53.0104C47.4574 53.2822 47.6103 53.6507 47.6108 54.0351V60.931C47.6103 61.3154 47.4574 61.6839 47.1856 61.9556C46.9139 62.2274 46.5454 62.3803 46.161 62.3807ZM39.2651 52.8254C38.9444 52.8257 38.6369 52.9533 38.4101 53.1801C38.1833 53.4069 38.0558 53.7144 38.0555 54.0351V60.931C38.0558 61.2517 38.1834 61.5592 38.4102 61.7859C38.6369 62.0127 38.9444 62.1403 39.2651 62.1406H46.161C46.4817 62.1403 46.7892 62.0127 47.016 61.786C47.2428 61.5592 47.3704 61.2517 47.3707 60.931V54.0351C47.3704 53.7144 47.2428 53.4069 47.016 53.1801C46.7892 52.9533 46.4817 52.8257 46.161 52.8254H39.2651Z" fill="#292A2E"/>
<path d="M46.161 75.8552H39.2651C38.8807 75.8547 38.5122 75.7018 38.2405 75.43C37.9687 75.1582 37.8158 74.7897 37.8154 74.4054V67.5096C37.8158 67.1252 37.9687 66.7567 38.2405 66.4849C38.5122 66.2131 38.8807 66.0603 39.2651 66.0598H46.161C46.5454 66.0603 46.9139 66.2131 47.1857 66.4849C47.4574 66.7567 47.6103 67.1252 47.6108 67.5096V74.4055C47.6103 74.7898 47.4574 75.1583 47.1856 75.4301C46.9138 75.7018 46.5453 75.8547 46.161 75.8552ZM39.2651 66.2997C38.9444 66.3001 38.6369 66.4277 38.4101 66.6545C38.1834 66.8813 38.0558 67.1888 38.0555 67.5095V74.4054C38.0558 74.7261 38.1834 75.0336 38.4101 75.2604C38.6369 75.4872 38.9444 75.6147 39.2651 75.6151H46.161C46.4817 75.6147 46.7892 75.4872 47.016 75.2604C47.2428 75.0336 47.3704 74.7261 47.3707 74.4054V67.5096C47.3704 67.1889 47.2428 66.8814 47.016 66.6546C46.7892 66.4278 46.4817 66.3002 46.161 66.2998L39.2651 66.2997Z" fill="#292A2E"/>
<path d="M41.4864 33.1053C41.3624 33.1053 41.2431 33.0573 41.1537 32.9712L39.1437 31.039C39.0983 30.9953 39.0619 30.9431 39.0366 30.8853C39.0113 30.8276 38.9977 30.7654 38.9964 30.7023C38.9952 30.6393 39.0064 30.5767 39.0293 30.5179C39.0523 30.4592 39.0866 30.4056 39.1303 30.3602C39.174 30.3147 39.2262 30.2783 39.284 30.253C39.3417 30.2278 39.4039 30.2141 39.4669 30.2129C39.5299 30.2116 39.5926 30.2228 39.6513 30.2458C39.71 30.2687 39.7636 30.303 39.8091 30.3467L41.4783 31.9514L45.6621 27.7293C45.752 27.6404 45.8734 27.5905 45.9999 27.5906C46.1263 27.5906 46.2477 27.6406 46.3375 27.7296C46.4274 27.8186 46.4785 27.9395 46.4797 28.0659C46.4809 28.1924 46.4322 28.3143 46.3441 28.405L41.8274 32.9626C41.7829 33.0078 41.7298 33.0437 41.6712 33.0682C41.6127 33.0927 41.5499 33.1053 41.4864 33.1053Z" fill="#0CBC8B"/>
<path d="M41.4864 46.7674C41.3624 46.7675 41.2431 46.7195 41.1537 46.6334L39.1437 44.7012C39.0519 44.613 38.999 44.4919 38.9964 44.3646C38.9939 44.2373 39.0421 44.1142 39.1303 44.0224C39.2185 43.9306 39.3396 43.8776 39.4669 43.8751C39.5942 43.8726 39.7173 43.9207 39.8091 44.009L41.4783 45.6132L45.6621 41.3914C45.7517 41.301 45.8736 41.2499 46.0009 41.2493C46.1282 41.2487 46.2506 41.2987 46.341 41.3883C46.4315 41.4779 46.4826 41.5998 46.4832 41.7271C46.4838 41.8545 46.4337 41.9768 46.3441 42.0672L41.8274 46.6248C41.7828 46.67 41.7298 46.7059 41.6712 46.7303C41.6127 46.7548 41.5499 46.7674 41.4864 46.7674Z" fill="#0CBC8B"/>
<path opacity="0.5" d="M91.8231 14.549H51.3796C51.1946 14.549 51.0447 14.6989 51.0447 14.8839C51.0447 15.0689 51.1946 15.2189 51.3796 15.2189H91.8231C92.0081 15.2189 92.158 15.0689 92.158 14.8839C92.158 14.6989 92.0081 14.549 91.8231 14.549Z" fill="#262626"/>
<path opacity="0.5" d="M77.4213 18.1494H51.3796C51.1946 18.1494 51.0447 18.2994 51.0447 18.4844C51.0447 18.6694 51.1946 18.8193 51.3796 18.8193H77.4213C77.6063 18.8193 77.7563 18.6694 77.7563 18.4844C77.7563 18.2994 77.6063 18.1494 77.4213 18.1494Z" fill="#262626"/>
<path opacity="0.5" d="M91.8231 28.2112H51.3796C51.1946 28.2112 51.0447 28.3611 51.0447 28.5461C51.0447 28.7311 51.1946 28.8811 51.3796 28.8811H91.8231C92.0081 28.8811 92.158 28.7311 92.158 28.5461C92.158 28.3611 92.0081 28.2112 91.8231 28.2112Z" fill="#262626"/>
<path opacity="0.5" d="M77.4213 31.8115H51.3796C51.1946 31.8115 51.0447 31.9615 51.0447 32.1465C51.0447 32.3315 51.1946 32.4814 51.3796 32.4814H77.4213C77.6063 32.4814 77.7563 32.3315 77.7563 32.1465C77.7563 31.9615 77.6063 31.8115 77.4213 31.8115Z" fill="#262626"/>
<path opacity="0.5" d="M91.8231 41.8734H51.3796C51.1946 41.8734 51.0447 42.0234 51.0447 42.2084C51.0447 42.3934 51.1946 42.5433 51.3796 42.5433H91.8231C92.0081 42.5433 92.158 42.3934 92.158 42.2084C92.158 42.0234 92.0081 41.8734 91.8231 41.8734Z" fill="#262626"/>
<path opacity="0.5" d="M77.4213 45.4738H51.3796C51.1946 45.4738 51.0447 45.6237 51.0447 45.8087C51.0447 45.9937 51.1946 46.1437 51.3796 46.1437H77.4213C77.6063 46.1437 77.7563 45.9937 77.7563 45.8087C77.7563 45.6237 77.6063 45.4738 77.4213 45.4738Z" fill="#262626"/>
<path opacity="0.5" d="M91.8231 55.3479H51.3796C51.1946 55.3479 51.0447 55.4979 51.0447 55.6829C51.0447 55.8679 51.1946 56.0178 51.3796 56.0178H91.8231C92.0081 56.0178 92.158 55.8679 92.158 55.6829C92.158 55.4979 92.0081 55.3479 91.8231 55.3479Z" fill="#262626"/>
<path opacity="0.5" d="M77.4213 58.9482H51.3796C51.1946 58.9482 51.0447 59.0982 51.0447 59.2832C51.0447 59.4682 51.1946 59.6182 51.3796 59.6182H77.4213C77.6063 59.6182 77.7563 59.4682 77.7563 59.2832C77.7563 59.0982 77.6063 58.9482 77.4213 58.9482Z" fill="#262626"/>
<path opacity="0.5" d="M91.8231 68.8223H51.3796C51.1946 68.8223 51.0447 68.9722 51.0447 69.1572C51.0447 69.3422 51.1946 69.4922 51.3796 69.4922H91.8231C92.0081 69.4922 92.158 69.3422 92.158 69.1572C92.158 68.9722 92.0081 68.8223 91.8231 68.8223Z" fill="#262626"/>
<path opacity="0.5" d="M77.4213 72.4227H51.3796C51.1946 72.4227 51.0447 72.5727 51.0447 72.7577C51.0447 72.9427 51.1946 73.0926 51.3796 73.0926H77.4213C77.6063 73.0926 77.7563 72.9427 77.7563 72.7577C77.7563 72.5727 77.6063 72.4227 77.4213 72.4227Z" fill="#262626"/>
<path d="M41.1399 19.1394C41.1749 19.0534 41.237 18.9812 41.3168 18.9338C41.3966 18.8863 41.4897 18.8663 41.5819 18.8767C41.5819 18.8692 41.5754 18.8512 41.5884 18.8513L41.2884 18.6617C41.1986 18.6077 41.1315 18.5231 41.0993 18.4235C41.0672 18.3239 41.0722 18.216 41.1134 18.1197C41.1571 18.026 41.2342 17.9518 41.3295 17.9116C41.4249 17.8715 41.5318 17.8682 41.6294 17.9024C41.6285 17.8983 41.631 17.8942 41.6314 17.8904L41.508 17.8125C41.4237 17.7613 41.3596 17.6825 41.3267 17.5895C41.2937 17.4966 41.2939 17.395 41.3272 17.3022C41.3494 17.2444 41.384 17.1923 41.4287 17.1495C41.4734 17.1068 41.5271 17.0745 41.5858 17.055C41.6445 17.0355 41.7068 17.0292 41.7682 17.0367C41.8296 17.0441 41.8886 17.0651 41.9409 17.0982L42.2258 17.2782C42.2265 17.2765 42.2258 17.2747 42.2265 17.2731C42.2272 17.2716 42.2305 17.2709 42.2319 17.2691C42.165 17.2021 42.1229 17.1144 42.1123 17.0204C42.1018 16.9263 42.1235 16.8315 42.1739 16.7514C42.2908 16.5362 42.5911 16.5612 42.7753 16.6775L43.3274 17.089C43.4125 17.1525 43.4807 17.2361 43.5257 17.3323C43.5707 17.4285 43.5912 17.5343 43.5854 17.6404C43.5363 18.5583 43.3507 20.9528 42.7627 20.5807L41.3155 19.6669C41.2317 19.6111 41.1689 19.5289 41.1371 19.4333C41.1053 19.3377 41.1063 19.2343 41.1399 19.1394Z" fill="#E98862"/>
<path d="M41.4863 19.3062C41.3622 19.3063 41.2429 19.2582 41.1536 19.1721L39.1436 17.2399C39.0974 17.1964 39.0604 17.1442 39.0346 17.0862C39.0087 17.0283 38.9946 16.9658 38.9931 16.9024C38.9915 16.839 39.0025 16.7759 39.0255 16.7168C39.0485 16.6577 39.0829 16.6037 39.1269 16.558C39.1709 16.5123 39.2234 16.4757 39.2816 16.4504C39.3398 16.4251 39.4024 16.4116 39.4658 16.4107C39.5292 16.4097 39.5922 16.4214 39.6511 16.4449C39.71 16.4684 39.7636 16.5034 39.8089 16.5478L41.4781 18.1521L45.6619 13.9304C45.7063 13.8856 45.7591 13.85 45.8172 13.8256C45.8753 13.8012 45.9377 13.7885 46.0007 13.7882C46.0638 13.7879 46.1263 13.8001 46.1846 13.8239C46.243 13.8478 46.2961 13.8829 46.3409 13.9273C46.3856 13.9716 46.4212 14.0244 46.4456 14.0825C46.47 14.1407 46.4827 14.203 46.483 14.2661C46.4833 14.3291 46.4712 14.3916 46.4473 14.45C46.4235 14.5083 46.3884 14.5614 46.344 14.6062L41.8272 19.1637C41.7827 19.2089 41.7296 19.2448 41.6711 19.2692C41.6125 19.2937 41.5497 19.3062 41.4863 19.3062Z" fill="#0CBC8B"/>
<path d="M40.103 18.1344C40.1131 18.0645 40.1373 17.9974 40.1741 17.9371C40.211 17.8769 40.2598 17.8248 40.3174 17.784C40.3751 17.7432 40.4405 17.7146 40.5096 17.6999C40.5787 17.6853 40.65 17.6848 40.7193 17.6986C40.8524 17.7301 40.9686 17.8108 41.0444 17.9246C41.1203 18.0384 41.1502 18.1767 41.128 18.3117L41.1136 19.0487C41.1106 19.2046 41.1647 19.3562 41.2658 19.4749C41.3668 19.5936 41.5079 19.6713 41.6622 19.6931C41.8135 19.7146 41.9675 19.6811 42.0962 19.5986C42.2249 19.5162 42.3197 19.3903 42.3635 19.2439L42.7395 17.9858L42.3306 17.3753C42.4737 17.1449 42.5937 16.549 42.8415 16.7265C43.0512 16.8568 43.5273 17.172 43.6576 17.4706C43.6601 17.4718 43.9039 20.0337 43.7712 20.2474L42.5977 23.3865C42.0348 24.2928 39.3179 23.5915 39.3179 23.5915L40.103 18.1344Z" fill="#E98862"/>
<path d="M41.478 18.1521L45.6619 13.9304C45.7062 13.8856 45.759 13.85 45.8171 13.8256C45.8753 13.8012 45.9376 13.7885 46.0007 13.7882C46.0637 13.7879 46.1262 13.8001 46.1845 13.8239C46.2429 13.8478 46.296 13.8829 46.3408 13.9273C46.3856 13.9716 46.4212 14.0244 46.4456 14.0825C46.47 14.1407 46.4827 14.203 46.4829 14.2661C46.4832 14.3291 46.4711 14.3916 46.4472 14.45C46.4234 14.5083 46.3883 14.5614 46.3439 14.6062L41.8271 19.1637" fill="#0CBC8B"/>
<path d="M20.1248 39.9719L37.0573 38.5469C38.304 38.5797 39.3895 37.5431 39.8468 36.38L44.283 22.4753L38.4798 20.1941L34.5639 32.1047L19.6724 33.1469L20.1248 39.9719Z" fill="#027DFF"/>
<path d="M10.2932 105.439C10.2932 105.439 10.8351 108.247 13.4649 108.404C16.0948 108.561 15.5245 110.656 15.5245 110.656H5.47461V105.634L10.2932 105.439Z" fill="#027DFF"/>
<path d="M7.19355 54.2007C7.19355 54.2007 7.22511 53.3564 7.21839 55.2717C7.19355 62.4161 7.06958 70.5766 6.76666 75.3519C6.27976 83.0286 5.03125 107.231 5.03125 107.231L11.6352 107.176L18.0358 53.9105L7.19355 54.2007Z" fill="#262626"/>
<path d="M14.6511 62.6256C14.6511 62.6256 14.9248 67.8102 14.9752 69.0273C15.0925 71.8422 15.1333 74.7567 15.1333 78.0612L16.1746 69.3984C16.1746 69.3984 15.4129 66.6837 14.6511 62.6256Z" fill="#0A0A0A"/>
<path d="M22.05 105.439C22.05 105.439 22.5919 108.247 25.2218 108.404C27.8516 108.561 27.2813 110.656 27.2813 110.656H17.2314V105.634L22.05 105.439Z" fill="#027DFF"/>
<path d="M25.2475 54.7556C25.2475 54.7556 25.8325 79.1732 25.7468 80.3667L23.291 107.046L16.7961 107.166L17.4291 79.4014C17.4291 79.4014 16.9826 71.7425 15.1321 64.6307C14.1853 60.9807 13.6155 57.2432 13.4316 53.4769L25.2475 54.7556Z" fill="#262626"/>
<path d="M7.12146 54.2L7.09985 54.2012C7.09985 54.2012 7.11558 53.7845 7.12146 54.2Z" fill="#333333"/>
<path d="M26.1772 41.9222C26.0411 43.5223 25.3785 52.7846 25.2476 54.7555H7.20078C7.09889 52.978 6.64103 45.2052 6.25447 41.7293C5.88542 38.4123 5.16137 36.7517 5.69208 35.771C6.5593 34.1684 8.92911 33.2423 10.545 33.0235C11.5317 32.89 19.944 32.7939 19.9642 32.7939C20.625 32.7939 24.4727 33.1045 25.3232 33.7596C26.8622 34.9448 26.4151 39.132 26.1772 41.9222Z" fill="#027DFF"/>
<path d="M26.4266 39.4887C26.4419 39.4888 26.4567 39.4829 26.4678 39.4724C26.479 39.4619 26.4857 39.4475 26.4866 39.4322L26.6322 37.1314C26.6331 37.1155 26.6276 37.0999 26.6171 37.0881C26.6065 37.0762 26.5916 37.069 26.5757 37.0681C26.5599 37.0673 26.5444 37.0728 26.5326 37.0834C26.5207 37.0939 26.5135 37.1087 26.5124 37.1245L26.3668 39.4253C26.3659 39.4411 26.3713 39.4567 26.3819 39.4686C26.3925 39.4805 26.4073 39.4877 26.4232 39.4886L26.4266 39.4887Z" fill="#0C0C0C"/>
<path d="M3.29912 54.6508C2.76838 54.6506 2.24554 54.5223 1.77508 54.2766C1.30463 54.0309 0.900482 53.6752 0.597034 53.2398C0.293585 52.8044 0.0998152 52.3021 0.0322109 51.7756C-0.0353934 51.2492 0.025169 50.7143 0.208745 50.2163C0.394648 49.7107 4.76557 38.1361 5.59739 35.9915L11.7588 38.4878C11.2908 39.6935 9.5958 44.2642 8.23387 47.9462L10.4964 47.7003L11.2086 54.2513L3.65544 54.6314C3.5371 54.6443 3.41816 54.6508 3.29912 54.6508Z" fill="#027DFF"/>
<path d="M22.1142 32.575C22.094 32.5724 21.5404 34.6556 17.2203 34.3313C14.2295 34.1072 13.4998 32.0716 13.4316 32.0716C13.7541 32.003 14.2779 31.9319 14.421 31.8555C14.892 31.6024 15.2351 31.2945 15.4077 30.6333C15.5427 30.1164 15.6117 28.1262 15.6117 27.1277L20.2139 28.1619C20.1497 29.2882 19.7007 31.8995 21.2743 32.3616C21.5361 32.438 21.8181 32.5082 22.1142 32.575Z" fill="#E98862"/>
<path d="M20.0545 30.3761C18.2402 30.5193 15.9096 29.7532 15.4668 27.3326L15.0674 25.1484C14.6247 22.7278 15.5371 20.533 17.8163 20.1162C20.0954 19.6994 22.1579 21.3502 22.6005 23.7707L22.7774 24.7377C22.9472 25.6666 23.2915 30.1207 20.0545 30.3761Z" fill="#E98862"/>
<path d="M21.7367 28.1536C21.4111 26.5174 21.2617 25.4256 21.2791 24.2739C21.7378 23.4698 21.6172 22.5457 21.5129 22.1468C21.8288 22.3474 22.2002 22.4426 22.5737 22.4187C22.5737 22.4187 21.8151 19.3742 19.2367 18.555C18.7625 18.3705 17.5519 18.1375 15.9446 18.3579C14.5775 18.5454 11.2075 19.5676 10.726 23.3616V23.3637C10.7102 23.4896 10.3866 26.9853 9.74188 28.6625C8.87478 30.9171 7.65723 31.6176 7.68807 34.2192C7.7278 37.5653 13.8794 38.0108 17.5893 37.7604C21.2992 37.5101 23.3708 36.2901 23.398 33.8787C23.4275 31.1766 22.3884 31.4275 21.7367 28.1536Z" fill="#0A0A0A"/>
<path d="M6.81648 41.7961L6.69653 41.8002L7.13996 54.7575L7.2599 54.7534L6.81648 41.7961Z" fill="#0C0C0C"/>
<path d="M114.677 110.74H1.8135C1.79122 110.74 1.76985 110.731 1.7541 110.715C1.73834 110.699 1.72949 110.678 1.72949 110.656C1.72949 110.633 1.73834 110.612 1.7541 110.596C1.76985 110.581 1.79122 110.572 1.8135 110.572H114.677C114.7 110.572 114.721 110.581 114.737 110.596C114.753 110.612 114.761 110.633 114.761 110.656C114.761 110.678 114.753 110.699 114.737 110.715C114.721 110.731 114.7 110.74 114.677 110.74Z" fill="#292A2E"/>
<path d="M103.028 95.0112C102.996 95.0111 102.965 94.9985 102.943 94.976C102.774 94.8069 102.498 91.7045 101.756 82.4676C101.452 78.6881 101.165 75.1183 100.956 72.9487C100.941 72.7937 100.881 72.7757 100.861 72.7698C100.574 72.6833 99.7024 73.3707 99.2158 73.9726C99.2059 73.9849 99.1936 73.9951 99.1798 74.0026C99.1659 74.0101 99.1507 74.0148 99.1351 74.0165C99.1194 74.0181 99.1035 74.0167 99.0884 74.0122C99.0733 74.0078 99.0592 74.0004 99.047 73.9904C99.0347 73.9805 99.0245 73.9683 99.017 73.9545C99.0095 73.9406 99.0048 73.9254 99.0031 73.9097C99.0014 73.8941 99.0029 73.8782 99.0074 73.8631C99.0118 73.848 99.0192 73.8339 99.0292 73.8216C99.351 73.4237 100.4 72.3804 100.93 72.5399C101.037 72.572 101.17 72.6649 101.195 72.9256C101.404 75.097 101.691 78.6679 101.995 82.4484C102.446 88.0615 102.957 94.4206 103.125 94.8211C103.138 94.839 103.146 94.8601 103.147 94.8822C103.149 94.9042 103.145 94.9262 103.135 94.9459C103.124 94.9655 103.109 94.982 103.09 94.9936C103.071 95.0051 103.05 95.0112 103.028 95.0112Z" fill="#494949"/>
<path d="M100.647 76.9297C102.639 75.3334 103.299 72.8487 102.122 71.38C100.944 69.9113 98.3755 70.0148 96.384 71.6111C94.3925 73.2075 93.7324 75.6922 94.9097 77.1609C96.087 78.6296 98.6558 78.5261 100.647 76.9297Z" fill="#0CBC8B"/>
<path opacity="0.2" d="M100.647 76.9297C102.639 75.3334 103.299 72.8487 102.122 71.38C100.944 69.9113 98.3755 70.0148 96.384 71.6111C94.3925 73.2075 93.7324 75.6922 94.9097 77.1609C96.087 78.6296 98.6558 78.5261 100.647 76.9297Z" fill="white"/>
<path d="M95.4681 77.5344C95.4567 77.5344 95.4456 77.5311 95.436 77.525C95.4264 77.5189 95.4187 77.5102 95.4139 77.4999C95.409 77.4896 95.4072 77.4781 95.4087 77.4668C95.4101 77.4555 95.4147 77.4449 95.422 77.4361L101.098 70.5918C101.103 70.5856 101.109 70.5804 101.116 70.5766C101.123 70.5728 101.13 70.5704 101.138 70.5696C101.146 70.5688 101.154 70.5696 101.162 70.5719C101.17 70.5743 101.177 70.5781 101.183 70.5832C101.189 70.5883 101.194 70.5945 101.198 70.6016C101.201 70.6087 101.204 70.6164 101.204 70.6244C101.205 70.6323 101.204 70.6403 101.202 70.6479C101.199 70.6555 101.195 70.6625 101.19 70.6685L95.5143 77.5128C95.5086 77.5196 95.5016 77.525 95.4936 77.5288C95.4856 77.5325 95.4769 77.5344 95.4681 77.5344Z" fill="white"/>
<path d="M104.266 93.5439C104.247 93.5439 104.228 93.5393 104.211 93.5305C104.194 93.5217 104.179 93.509 104.168 93.4934C104.157 93.4777 104.15 93.4597 104.147 93.4407C104.144 93.4218 104.146 93.4025 104.152 93.3844L106.284 87.2532C106.347 87.073 106.454 86.9115 106.595 86.7834C106.737 86.6553 106.908 86.5647 107.093 86.52C107.279 86.4752 107.473 86.4777 107.657 86.5272C107.841 86.5767 108.01 86.6717 108.148 86.8034L109.275 87.8805C109.298 87.9025 109.311 87.9327 109.312 87.9646C109.313 87.9964 109.301 88.0272 109.279 88.0502C109.257 88.0732 109.227 88.0866 109.195 88.0873C109.163 88.088 109.132 88.076 109.109 88.054L107.982 86.9774C107.873 86.8735 107.74 86.7986 107.594 86.7595C107.449 86.7204 107.296 86.7185 107.15 86.7538C107.003 86.7891 106.868 86.8606 106.757 86.9617C106.645 87.0628 106.561 87.1902 106.511 87.3324L104.379 93.4632C104.371 93.4868 104.356 93.5072 104.335 93.5216C104.315 93.5361 104.291 93.5439 104.266 93.5439Z" fill="#494949"/>
<path d="M112.424 91.2748C113.9 90.1066 113.812 87.5372 112.228 85.5359C110.644 83.5347 108.163 82.8593 106.687 84.0276C105.212 85.1958 105.299 87.7652 106.883 89.7664C108.467 91.7677 110.948 92.443 112.424 91.2748Z" fill="#0CBC8B"/>
<path d="M102.059 94.6201C102.032 94.62 102.006 94.6109 101.985 94.5942C101.964 94.5775 101.949 94.5541 101.943 94.5279L98.365 79.5688C98.3406 79.4668 98.2885 79.3735 98.2145 79.2992C98.1405 79.2249 98.0474 79.1725 97.9455 79.1477C97.8436 79.1229 97.7368 79.1266 97.6369 79.1586C97.5371 79.1905 97.4479 79.2494 97.3793 79.3288L96.2765 80.6032C96.2557 80.6273 96.2261 80.6421 96.1944 80.6444C96.1626 80.6467 96.1313 80.6363 96.1072 80.6154C96.0831 80.5946 96.0683 80.5651 96.066 80.5333C96.0637 80.5016 96.0741 80.4702 96.0949 80.4461L97.1979 79.1717C97.2954 79.059 97.4221 78.9753 97.5641 78.93C97.706 78.8847 97.8578 78.8794 98.0026 78.9147C98.1474 78.95 98.2796 79.0246 98.3847 79.1303C98.4899 79.2359 98.5638 79.3685 98.5984 79.5135L102.176 94.4726C102.18 94.4902 102.181 94.5086 102.177 94.5263C102.173 94.5441 102.165 94.5607 102.154 94.5749C102.142 94.5892 102.128 94.6007 102.112 94.6086C102.095 94.6165 102.077 94.6206 102.059 94.6205V94.6201Z" fill="#494949"/>
<path d="M100.669 83.9287C101.103 81.4147 99.9513 79.1172 98.0973 78.7973C96.2432 78.4773 94.3885 80.2559 93.9546 82.7699C93.5207 85.284 94.6719 87.5814 96.526 87.9014C98.38 88.2214 100.235 86.4428 100.669 83.9287Z" fill="#0CBC8B"/>
<path d="M103.028 95.0111C103.023 95.0111 103.018 95.0108 103.013 95.0102C102.997 95.0083 102.982 95.0033 102.969 94.9955C102.955 94.9877 102.943 94.9773 102.933 94.9649C102.923 94.9525 102.916 94.9383 102.912 94.9231C102.908 94.9079 102.907 94.892 102.909 94.8764L105.193 76.3273C105.218 76.1252 105.301 75.9346 105.431 75.7785C105.562 75.6223 105.735 75.5071 105.929 75.4469C106.124 75.3866 106.332 75.3838 106.528 75.4388C106.724 75.4938 106.9 75.6042 107.034 75.7569L109.646 78.7144C109.667 78.7383 109.677 78.7695 109.675 78.8013C109.674 78.8331 109.659 78.8628 109.635 78.8839C109.611 78.905 109.58 78.9157 109.548 78.9138C109.516 78.9118 109.487 78.8973 109.466 78.8734L106.854 75.9159C106.75 75.7979 106.614 75.7126 106.463 75.67C106.311 75.6275 106.151 75.6297 106 75.6762C105.85 75.7228 105.716 75.8117 105.615 75.9324C105.515 76.0531 105.451 76.2004 105.431 76.3566L103.147 94.9058C103.143 94.9348 103.129 94.9616 103.107 94.981C103.085 95.0004 103.057 95.0111 103.028 95.0111Z" fill="#494949"/>
<path d="M112.324 80.3581C113.235 78.711 112.163 76.3742 109.93 75.1388C107.696 73.9034 105.147 74.2372 104.236 75.8843C103.325 77.5313 104.397 79.8681 106.63 81.1035C108.864 82.3389 111.413 82.0051 112.324 80.3581Z" fill="#0CBC8B"/>
<path opacity="0.2" d="M112.424 91.2748C113.9 90.1066 113.812 87.5372 112.228 85.5359C110.644 83.5347 108.163 82.8593 106.687 84.0276C105.212 85.1958 105.299 87.7652 106.883 89.7664C108.467 91.7677 110.948 92.443 112.424 91.2748Z" fill="white"/>
<path opacity="0.5" d="M100.669 83.9287C101.103 81.4147 99.9513 79.1172 98.0973 78.7973C96.2432 78.4773 94.3885 80.2559 93.9546 82.7699C93.5207 85.284 94.6719 87.5814 96.526 87.9014C98.38 88.2214 100.235 86.4428 100.669 83.9287Z" fill="white"/>
<path opacity="0.5" d="M112.324 80.3581C113.235 78.711 112.163 76.3742 109.93 75.1388C107.696 73.9034 105.147 74.2372 104.236 75.8843C103.325 77.5313 104.397 79.8681 106.63 81.1035C108.864 82.3389 111.413 82.0051 112.324 80.3581Z" fill="white"/>
<path d="M105.95 110.75H100.106L99.1372 92.0513H106.918L105.95 110.75Z" fill="#292A2E"/>
<path opacity="0.3" d="M105.95 110.75H100.106L99.1372 92.0513H106.918L105.95 110.75Z" fill="white"/>
<path d="M112.424 91.334C112.415 91.334 112.406 91.332 112.398 91.328C112.39 91.3241 112.382 91.3183 112.377 91.3112L106.64 84.064C106.63 84.0515 106.626 84.0356 106.628 84.0198C106.629 84.004 106.638 83.9895 106.65 83.9796C106.662 83.9698 106.678 83.9652 106.694 83.9671C106.71 83.9689 106.724 83.977 106.734 83.9895L112.471 91.2367C112.478 91.2455 112.482 91.2561 112.484 91.2673C112.485 91.2786 112.483 91.2899 112.478 91.3001C112.473 91.3102 112.466 91.3188 112.456 91.3248C112.446 91.3308 112.435 91.334 112.424 91.334H112.424Z" fill="white"/>
<path d="M111.942 80.9387C111.929 80.9386 111.917 80.9344 111.907 80.9267L104.566 75.567C104.56 75.5624 104.554 75.5565 104.55 75.5498C104.546 75.543 104.543 75.5356 104.542 75.5278C104.541 75.52 104.541 75.512 104.543 75.5044C104.545 75.4967 104.548 75.4895 104.553 75.4831C104.558 75.4768 104.564 75.4714 104.57 75.4673C104.577 75.4632 104.585 75.4604 104.592 75.4592C104.6 75.458 104.608 75.4583 104.616 75.4602C104.623 75.4621 104.631 75.4654 104.637 75.47L111.978 80.8303C111.988 80.8378 111.996 80.8483 112 80.8604C112.003 80.8724 112.003 80.8853 111.999 80.8972C111.995 80.9092 111.988 80.9196 111.977 80.9269C111.967 80.9343 111.955 80.9383 111.942 80.9383V80.9387Z" fill="white"/>
<path d="M96.2957 87.8213C96.2904 87.8213 96.2852 87.8206 96.2801 87.8193C96.2647 87.8152 96.2516 87.8052 96.2437 87.7914C96.2357 87.7776 96.2335 87.7612 96.2376 87.7459L98.5745 78.9904C98.5765 78.9827 98.5799 78.9754 98.5847 78.9691C98.5894 78.9627 98.5954 78.9573 98.6023 78.9533C98.6092 78.9492 98.6168 78.9466 98.6246 78.9455C98.6325 78.9444 98.6406 78.9449 98.6483 78.947C98.656 78.949 98.6632 78.9526 98.6695 78.9575C98.6758 78.9623 98.681 78.9684 98.685 78.9753C98.6889 78.9823 98.6914 78.9899 98.6924 78.9978C98.6933 79.0057 98.6927 79.0137 98.6905 79.0214L96.3536 87.7768C96.3502 87.7896 96.3426 87.8008 96.3322 87.8089C96.3217 87.8169 96.3089 87.8213 96.2957 87.8213Z" fill="white"/>
</svg>
