<svg width="36" height="36" viewBox="0 0 36 36" fill="none" xmlns="http://www.w3.org/2000/svg">
<path d="M22.9051 12.5862L18.7801 11.0412C18.3526 10.8837 17.6551 10.8837 17.2276 11.0412L13.1026 12.5862C12.3076 12.8862 11.6626 13.8162 11.6626 14.6637V20.7387C11.6626 21.3462 12.0601 22.1487 12.5476 22.5087L16.6726 25.5912C17.4001 26.1387 18.5926 26.1387 19.3201 25.5912L23.4451 22.5087C23.9326 22.1412 24.3301 21.3462 24.3301 20.7387V14.6637C24.3376 13.8162 23.6926 12.8862 22.9051 12.5862ZM20.6101 16.7862L17.3851 20.0112C17.2726 20.1237 17.1301 20.1762 16.9876 20.1762C16.8451 20.1762 16.7026 20.1237 16.5901 20.0112L15.3901 18.7962C15.1726 18.5787 15.1726 18.2187 15.3901 18.0012C15.6076 17.7837 15.9676 17.7837 16.1851 18.0012L16.9951 18.8112L19.8226 15.9837C20.0401 15.7662 20.4001 15.7662 20.6176 15.9837C20.8351 16.2012 20.8351 16.5687 20.6101 16.7862Z" fill="#28C66F"/>
<rect x="0.5" y="0.5" width="35" height="35" rx="17.5" stroke="#E2EEF2"/>
</svg>
