<svg width="36" height="36" viewBox="0 0 36 36" fill="none" xmlns="http://www.w3.org/2000/svg">
<path d="M20.1375 11.9626V14.8126H19.0125V11.9626C19.0125 11.7601 18.8325 11.6626 18.7125 11.6626C18.675 11.6626 18.6375 11.6701 18.6 11.6851L12.6525 13.9276C12.255 14.0776 12 14.4526 12 14.8801V15.3826C11.3175 15.8926 10.875 16.7101 10.875 17.6326V14.8801C10.875 13.9876 11.4225 13.1926 12.255 12.8776L18.21 10.6276C18.375 10.5676 18.5475 10.5376 18.7125 10.5376C19.4625 10.5376 20.1375 11.1451 20.1375 11.9626Z" fill="#25009A"/>
<path d="M25.125 19.875V20.625C25.125 20.8275 24.9675 20.9925 24.7575 21H23.6625C23.265 21 22.905 20.7075 22.875 20.3175C22.8525 20.085 22.9425 19.8675 23.0925 19.7175C23.2275 19.575 23.415 19.5 23.6175 19.5H24.75C24.9675 19.5075 25.125 19.6725 25.125 19.875Z" fill="#25009A"/>
<path d="M23.61 18.7125H24.375C24.7875 18.7125 25.125 18.375 25.125 17.9625V17.6325C25.125 16.08 23.8575 14.8125 22.305 14.8125H13.695C13.0575 14.8125 12.4725 15.0225 12 15.3825C11.3175 15.8925 10.875 16.71 10.875 17.6325V18.9675C10.875 19.2525 11.175 19.4325 11.445 19.3425C11.865 19.2 12.3075 19.125 12.75 19.125C15.0225 19.125 16.875 20.9775 16.875 23.25C16.875 23.79 16.7325 24.3825 16.5075 24.9075C16.3875 25.1775 16.575 25.5 16.8675 25.5H22.305C23.8575 25.5 25.125 24.2325 25.125 22.68V22.5375C25.125 22.125 24.7875 21.7875 24.375 21.7875H23.7225C23.0025 21.7875 22.3125 21.345 22.125 20.6475C21.975 20.0775 22.155 19.5225 22.53 19.1625C22.8075 18.8775 23.19 18.7125 23.61 18.7125ZM19.5 18.5625H15.75C15.4425 18.5625 15.1875 18.3075 15.1875 18C15.1875 17.6925 15.4425 17.4375 15.75 17.4375H19.5C19.8075 17.4375 20.0625 17.6925 20.0625 18C20.0625 18.3075 19.8075 18.5625 19.5 18.5625Z" fill="#25009A"/>
<path d="M13.4393 22.5668C13.4393 22.4757 13.3361 22.3361 13.2085 22.3361H11.9575V22.7915H13.2085C13.3361 22.7976 13.4393 22.6944 13.4393 22.5668Z" fill="#25009A"/>
<path d="M13.4514 23.7085H13.2085H11.9575V24.164H13.4575C13.6519 24.164 13.7855 24.0425 13.7855 23.9332C13.7855 23.8239 13.6458 23.7085 13.4514 23.7085Z" fill="#25009A"/>
<path d="M16.4879 22.9615C16.3482 21.1215 14.8785 19.6518 13.0385 19.5121C12.9413 19.5061 12.8502 19.5 12.747 19.5C10.6761 19.5 9 21.1761 9 23.253C9 25.3239 10.6761 27 12.747 27C14.8178 27 16.5 25.3239 16.5 23.253C16.5 23.1498 16.4939 23.0587 16.4879 22.9615ZM13.4514 25.0749H13.0506V25.3057C13.0506 25.5547 12.8441 25.7611 12.5951 25.7611C12.3462 25.7611 12.1397 25.5547 12.1397 25.3057V25.0749H11.502C11.253 25.0749 11.0466 24.8684 11.0466 24.6194V23.253V21.8866C11.0466 21.6377 11.253 21.4312 11.502 21.4312H12.1397V21.2004C12.1397 20.9514 12.3462 20.7449 12.5951 20.7449C12.8441 20.7449 13.0506 20.9514 13.0506 21.2004V21.4312H13.2085C13.8158 21.4312 14.3502 21.9656 14.3502 22.5729C14.3502 22.749 14.3077 22.913 14.2348 23.0648C14.5142 23.2713 14.6903 23.587 14.6903 23.9393C14.6903 24.5648 14.1377 25.0749 13.4514 25.0749Z" fill="#25009A"/>
<rect x="0.5" y="0.5" width="35" height="35" rx="17.5" stroke="#E2EEF2"/>
</svg>
