<svg width="36" height="36" viewBox="0 0 36 36" fill="none" xmlns="http://www.w3.org/2000/svg">
<path d="M25.5 20.25C25.5 23.1525 23.1525 25.5 20.25 25.5L21.0375 24.1875" stroke="#FE406E" stroke-width="1.125" stroke-linecap="round" stroke-linejoin="round"/>
<path d="M10.5 15.75C10.5 12.8475 12.8475 10.5 15.75 10.5L14.9625 11.8125" stroke="#FE406E" stroke-width="1.125" stroke-linecap="round" stroke-linejoin="round"/>
<path d="M16.5938 13.6875C15.3656 13.6875 14.3672 14.6859 14.3672 15.9141C14.3672 17.1187 15.3094 18.0937 16.5375 18.1359C16.575 18.1312 16.6125 18.1312 16.6406 18.1359C16.65 18.1359 16.6547 18.1359 16.6641 18.1359C16.6687 18.1359 16.6688 18.1359 16.6734 18.1359C17.8734 18.0937 18.8156 17.1187 18.8203 15.9141C18.8203 14.6859 17.8219 13.6875 16.5938 13.6875Z" fill="#FE406E"/>
<path d="M18.9752 19.3828C17.6674 18.5109 15.5346 18.5109 14.2174 19.3828C13.6221 19.7812 13.2939 20.3203 13.2939 20.8969C13.2939 21.4734 13.6221 22.0078 14.2127 22.4015C14.8689 22.8422 15.7314 23.0625 16.5939 23.0625C17.4564 23.0625 18.3189 22.8422 18.9752 22.4015C19.5658 22.0031 19.8939 21.4687 19.8939 20.8875C19.8893 20.3109 19.5658 19.7765 18.9752 19.3828Z" fill="#FE406E"/>
<path d="M21.7455 16.1906C21.8205 17.1 21.1736 17.8969 20.2783 18.0047C20.2736 18.0047 20.2736 18.0047 20.2689 18.0047H20.2549C20.2268 18.0047 20.1986 18.0047 20.1752 18.014C19.7205 18.0375 19.3033 17.8922 18.9893 17.625C19.4721 17.1937 19.7486 16.5469 19.6924 15.8437C19.6596 15.464 19.5283 15.1172 19.3314 14.8219C19.5096 14.7328 19.7158 14.6765 19.9268 14.6578C20.8455 14.5781 21.6658 15.2625 21.7455 16.1906Z" fill="#FE406E"/>
<path d="M22.6826 20.5265C22.6451 20.9812 22.3545 21.3749 21.867 21.6421C21.3982 21.8999 20.8076 22.0218 20.2217 22.0078C20.5592 21.7031 20.7561 21.3234 20.7936 20.9203C20.8404 20.339 20.5639 19.7812 20.0107 19.3359C19.6967 19.0874 19.3311 18.8906 18.9326 18.7453C19.9686 18.4453 21.2717 18.6468 22.0732 19.2937C22.5045 19.6406 22.7248 20.0765 22.6826 20.5265Z" fill="#FE406E"/>
<rect x="0.5" y="0.5" width="35" height="35" rx="17.5" stroke="#E2EEF2"/>
</svg>
