<svg width="36" height="36" viewBox="0 0 36 36" fill="none" xmlns="http://www.w3.org/2000/svg">
<path d="M17.793 9.00012C16.614 9.00012 15.6555 9.95862 15.6555 11.1376C15.6555 12.2941 16.56 13.2301 17.739 13.2706C17.775 13.2661 17.811 13.2661 17.838 13.2706C17.847 13.2706 17.8515 13.2706 17.8605 13.2706C17.865 13.2706 17.865 13.2706 17.8695 13.2706C19.0215 13.2301 19.926 12.2941 19.9305 11.1376C19.9305 9.95862 18.972 9.00012 17.793 9.00012Z" fill="#FC7B5B"/>
<path d="M20.079 14.4676C18.8235 13.6306 16.776 13.6306 15.5115 14.4676C14.94 14.8501 14.625 15.3676 14.625 15.9211C14.625 16.4746 14.94 16.9876 15.507 17.3656C16.137 17.7886 16.965 18.0001 17.793 18.0001C18.621 18.0001 19.449 17.7886 20.079 17.3656C20.646 16.9831 20.961 16.4701 20.961 15.9121C20.9565 15.3586 20.646 14.8456 20.079 14.4676Z" fill="#FC7B5B"/>
<path d="M24.543 18.0001C23.364 18.0001 22.4055 18.9586 22.4055 20.1376C22.4055 21.2941 23.31 22.2301 24.489 22.2706C24.525 22.2661 24.561 22.2661 24.588 22.2706C24.597 22.2706 24.6015 22.2706 24.6105 22.2706C24.615 22.2706 24.615 22.2706 24.6195 22.2706C25.7715 22.2301 26.676 21.2941 26.6805 20.1376C26.6805 18.9586 25.722 18.0001 24.543 18.0001Z" fill="#FC7B5B"/>
<path d="M26.829 23.4721C25.5735 22.6351 23.526 22.6351 22.2615 23.4721C21.69 23.8501 21.375 24.3676 21.375 24.9211C21.375 25.4746 21.69 25.9876 22.257 26.3656C22.887 26.7886 23.715 27.0001 24.543 27.0001C25.371 27.0001 26.199 26.7886 26.829 26.3656C27.396 25.9831 27.711 25.4701 27.711 24.9121C27.7065 24.3631 27.396 23.8456 26.829 23.4721ZM25.5915 24.5521L24.4575 25.6861C24.4035 25.7401 24.3315 25.7671 24.2595 25.7671C24.1875 25.7671 24.1155 25.7356 24.0615 25.6861L23.4945 25.1191C23.3865 25.0111 23.3865 24.8311 23.4945 24.7231C23.6025 24.6151 23.7825 24.6151 23.8905 24.7231L24.2595 25.0921L25.1955 24.1561C25.3035 24.0481 25.4835 24.0481 25.5915 24.1561C25.704 24.2641 25.704 24.4441 25.5915 24.5521Z" fill="#FC7B5B"/>
<path d="M11.043 18.0001C9.86402 18.0001 8.90552 18.9586 8.90552 20.1376C8.90552 21.2941 9.81002 22.2301 10.989 22.2706C11.025 22.2661 11.061 22.2661 11.088 22.2706C11.097 22.2706 11.1015 22.2706 11.1105 22.2706C11.115 22.2706 11.115 22.2706 11.1195 22.2706C12.2715 22.2301 13.176 21.2941 13.1805 20.1376C13.1805 18.9586 12.222 18.0001 11.043 18.0001Z" fill="#FC7B5B"/>
<path d="M13.329 23.4721C12.0735 22.6351 10.026 22.6351 8.7615 23.4721C8.19 23.8501 7.875 24.3676 7.875 24.9211C7.875 25.4746 8.19 25.9876 8.757 26.3656C9.387 26.7886 10.215 27.0001 11.043 27.0001C11.871 27.0001 12.699 26.7886 13.329 26.3656C13.896 25.9831 14.211 25.4701 14.211 24.9121C14.2065 24.3631 13.896 23.8456 13.329 23.4721ZM12.0915 24.5521L10.9575 25.6861C10.9035 25.7401 10.8315 25.7671 10.7595 25.7671C10.6875 25.7671 10.6155 25.7356 10.5615 25.6861L9.9945 25.1191C9.8865 25.0111 9.8865 24.8311 9.9945 24.7231C10.1025 24.6151 10.2825 24.6151 10.3905 24.7231L10.7595 25.0921L11.6955 24.1561C11.8035 24.0481 11.9835 24.0481 12.0915 24.1561C12.204 24.2641 12.204 24.4441 12.0915 24.5521Z" fill="#FC7B5B"/>
<path d="M20.625 12.0001V12.0001C22.6961 12.0001 24.375 13.6791 24.375 15.7501V16.5001" stroke="#FC7B5B" stroke-width="1.125" stroke-linecap="round"/>
<path d="M14.625 12.0001V12.0001C12.5539 12.0001 10.875 13.6791 10.875 15.7501V16.5001" stroke="#FC7B5B" stroke-width="1.125" stroke-linecap="round"/>
<rect x="0.5" y="0.5" width="35" height="35" rx="17.5" stroke="#E2EEF2"/>
</svg>
