<svg width="36" height="36" viewBox="0 0 36 36" fill="none" xmlns="http://www.w3.org/2000/svg">
<path d="M9 14H16.9773" stroke="#01B4FA" stroke-width="1.02273" stroke-linecap="round"/>
<path d="M9 16.4545H15.75" stroke="#01B4FA" stroke-width="1.02273" stroke-linecap="round"/>
<path d="M9 18.9089H15.75" stroke="#01B4FA" stroke-width="1.02273" stroke-linecap="round"/>
<path d="M9 21.3635H16.9773" stroke="#01B4FA" stroke-width="1.02273" stroke-linecap="round"/>
<path d="M22.7045 12.7954C20.1123 12.7954 18 14.9078 18 17.5C18 20.0922 20.1123 22.2045 22.7045 22.2045C25.2968 22.2045 27.4091 20.0922 27.4091 17.5C27.4091 14.9078 25.2968 12.7954 22.7045 12.7954ZM24.751 19.1795C24.6852 19.2924 24.5675 19.3535 24.4452 19.3535C24.3841 19.3535 24.3229 19.3394 24.2665 19.3018L22.808 18.4315C22.4458 18.215 22.1776 17.7399 22.1776 17.3212V15.3923C22.1776 15.1994 22.3376 15.0395 22.5305 15.0395C22.7234 15.0395 22.8833 15.1994 22.8833 15.3923V17.3212C22.8833 17.4905 23.0245 17.7399 23.1703 17.8246L24.6287 18.6949C24.7981 18.7937 24.8545 19.0101 24.751 19.1795Z" fill="#01B4FA"/>
<rect x="0.5" y="0.5" width="35" height="35" rx="17.5" stroke="#E2EEF2"/>
</svg>
