<svg width="36" height="36" viewBox="0 0 36 36" fill="none" xmlns="http://www.w3.org/2000/svg">
<rect width="36" height="36" rx="18" fill="#1D2028"/>
<path d="M21.75 12H14.25C12 12 10.5 13.125 10.5 15.75V18.42C10.5 18.6975 10.785 18.87 11.0325 18.7575C11.7675 18.42 12.615 18.2925 13.5075 18.45C15.48 18.8025 16.9275 20.6325 16.875 22.635C16.8675 22.95 16.8225 23.2575 16.74 23.5575C16.68 23.79 16.8675 24.0075 17.1075 24.0075H21.75C24 24.0075 25.5 22.8825 25.5 20.2575V15.75C25.5 13.125 24 12 21.75 12ZM18 19.875C16.965 19.875 16.125 19.035 16.125 18C16.125 16.965 16.965 16.125 18 16.125C19.035 16.125 19.875 16.965 19.875 18C19.875 19.035 19.035 19.875 18 19.875ZM23.4375 19.5C23.4375 19.8075 23.1825 20.0625 22.875 20.0625C22.5675 20.0625 22.3125 19.8075 22.3125 19.5V16.5C22.3125 16.1925 22.5675 15.9375 22.875 15.9375C23.1825 15.9375 23.4375 16.1925 23.4375 16.5V19.5Z" fill="#23E7ED"/>
<path d="M12.75 19.5C11.8125 19.5 10.965 19.9425 10.4175 20.6175C9.9975 21.135 9.75 21.7875 9.75 22.5C9.75 24.1575 11.1 25.5 12.75 25.5C14.055 25.5 15.1725 24.6675 15.5775 23.4975C15.69 23.19 15.75 22.8525 15.75 22.5C15.75 20.85 14.4075 19.5 12.75 19.5ZM14.52 23.805C14.505 23.85 14.475 23.895 14.445 23.925L13.905 24.4575C13.8375 24.5325 13.7475 24.5625 13.65 24.5625C13.5525 24.5625 13.455 24.5325 13.3875 24.4575C13.2675 24.345 13.2525 24.165 13.3275 24.03H11.82C11.34 24.03 10.95 23.64 10.95 23.1525V23.0775C10.95 22.8675 11.115 22.71 11.3175 22.71C11.52 22.71 11.685 22.8675 11.685 23.0775V23.1525C11.685 23.235 11.745 23.3025 11.8275 23.3025H13.335C13.26 23.16 13.275 22.9875 13.395 22.8675C13.5375 22.725 13.77 22.725 13.905 22.8675L14.445 23.4075C14.475 23.4375 14.505 23.4825 14.5275 23.5275C14.5575 23.61 14.5575 23.715 14.52 23.805ZM14.55 21.9225C14.55 22.1325 14.385 22.29 14.1825 22.29C13.98 22.29 13.815 22.1325 13.815 21.9225V21.8475C13.815 21.765 13.755 21.6975 13.6725 21.6975H12.1725C12.2475 21.84 12.2325 22.0125 12.1125 22.1325C12.045 22.2 11.955 22.2375 11.85 22.2375C11.76 22.2375 11.6625 22.2 11.595 22.1325L11.055 21.5925C11.025 21.5625 10.995 21.5175 10.9725 21.4725C10.9425 21.3825 10.9425 21.285 10.9725 21.195C10.995 21.1575 11.0175 21.105 11.055 21.075L11.595 20.5425C11.7375 20.3925 11.97 20.3925 12.105 20.5425C12.225 20.655 12.24 20.835 12.165 20.97H13.6725C14.1525 20.97 14.5425 21.36 14.5425 21.8475V21.9225H14.55Z" fill="#23E7ED"/>
</svg>
